<?xml version="1.0" encoding="utf-8"?>
<svg xmlns="http://www.w3.org/2000/svg" height="128" width="128" viewBox="0 0 128 128">
  <g>
    <path id="path1" transform="rotate(0,64,64) translate(15.4355263581388,0) scale(3.99987507256639,3.99987507256639)  " fill="#5680FF" d="M20.781711,26.101032L17.051688,26.267047C17.051688,26.300006 17.051688,26.333026 17.052695,26.366046 17.073691,28.694051 17.854699,29.926046 18.1477,30.002035L19.690703,29.921041C20.026704,29.834005,20.804706,28.433004,20.781711,26.114032z M22.611703,24.018022L22.711709,24.95302C22.75071,25.323991 22.776711,25.696003 22.781716,26.091022 22.809716,28.921041 21.789708,31.829002 19.786696,31.919029L18.2317,31.999046C18.201701,32.000022 18.171702,32.000999 18.139689,32.000999 17.7427,32.000999 17.191688,31.881004 16.645696,31.364036 15.682696,30.454 15.072694,28.550008 15.05269,26.394001 15.045686,26.000995 15.068681,25.607013 15.100694,25.22603L15.172685,24.348039z M10.571673,20.943008L6.4406638,21.773025C6.4476681,21.815017 6.4566555,21.857009 6.4646664,21.899002 6.9956584,24.487016 8.2136641,25.753009 8.5316734,25.662006L10.202668,25.338029C10.214678,25.335039 10.283678,25.295 10.373674,25.159013 10.766681,24.567033 11.00568,23.046037 10.604678,21.103042 10.594668,21.049026 10.583667,20.996048 10.571673,20.943008z M11.984672,18.619031L12.249672,19.486036C12.363686,19.859022 12.480676,20.267044 12.566674,20.71199 13.026682,22.945024 12.826685,25.07802 12.040671,26.265033 11.569677,26.976032 10.990681,27.22005 10.588672,27.300006L8.9196749,27.624042C8.7776613,27.651996 8.6376619,27.667011 8.4996605,27.667011 6.5996609,27.667011 5.0716567,25.063005 4.5056605,22.299026 4.4206538,21.880996 4.3606558,21.481033 4.3206472,21.081008L4.228652,20.177991z M18.432704,8.2450004C18.307704,8.2450004 18.179698,8.2479911 18.0507,8.2550102 16.86869,8.3129936 15.924685,8.4050346 15.435686,9.0139833 14.826691,9.7710023 14.730682,11.418037 15.14969,13.909982 15.328691,14.981028 15.543688,15.663036 15.79169,16.452037 16.09769,17.426036 16.439687,18.515028 16.780692,20.512039L21.877706,20.476028C22.223701,18.687025 22.351707,16.658031 22.247703,14.55604 21.941703,8.2750297 19.685699,8.2559867 18.472697,8.2450004z M18.487697,6.244999C22.144706,6.2760048 23.973706,8.8870302 24.245709,14.458018 24.373715,17.051036 24.170712,19.556043 23.658717,21.702041L23.47671,22.464004 15.069688,22.523025 14.940689,21.667007C14.577682,19.262037 14.209684,18.088026 13.883679,17.052013 13.624676,16.228038 13.37968,15.448985 13.176677,14.241038 12.644677,11.075996 12.866678,9.0159975 13.877683,7.7600146 14.968689,6.403019 16.693685,6.317997 17.953698,6.2570229 18.132701,6.2479897 18.309703,6.2410317 18.487697,6.244999z M7.1096573,2.0020152C6.5796566,2.0020149 5.9836621,2.1090098 5.3686547,2.2299815 3.7836585,2.543031 1.1276447,3.0670183 2.2886434,10.096015 2.6756535,12.445015 3.308651,14.633006 4.1286607,16.474987L9.581665,15.312022C9.4496756,12.836983 9.5716705,11.515022 9.6796722,10.333992 9.7626648,9.4359804 9.8336639,8.6599784 9.7796783,7.4810229 9.5266714,2.0260017 7.981669,2.0109871 7.1516647,2.0020152z M6.8955083,0.0016699307C6.9878793,-0.00061093071 7.0802856,-0.00061093083 7.1726608,0.0020137411 10.952671,0.041015077 11.61968,3.9710105 11.77767,7.3900195 11.837684,8.7059989 11.756674,9.5850282 11.671682,10.517036 11.558676,11.752999 11.429677,13.154001 11.630682,16.041027L11.691671,16.906993 3.0106461,18.758009 2.6656435,18.063001C1.5976473,15.911022 0.78464133,13.270029 0.31463853,10.422004 -0.70636046,4.2379785 0.73364628,1.1060182 4.9836588,0.26702855 5.6040354,0.14537002 6.24891,0.017636688 6.8955083,0.0016699307z" />
  </g>
</svg>
